<?xml version="1.0" encoding="utf-8"?>
<!-- Generator: Adobe Illustrator 28.3.0, SVG Export Plug-In . SVG Version: 6.00 Build 0)  -->
<svg version="1.1" id="Layer_1" xmlns="http://www.w3.org/2000/svg" xmlns:xlink="http://www.w3.org/1999/xlink" x="0px" y="0px"
	 viewBox="0 0 512 512" style="enable-background:new 0 0 512 512;" xml:space="preserve">
<style type="text/css">
	.st0{fill:#C64E39;}
	.st1{fill:#282828;}
</style>
<path class="st0" d="M147.6,161.3c27.5,0,55,0,82.4,0c0.6,0,1.2,0,1.7,0c2.2,0.2,3.3,1.2,3.7,3.3c0.1,0.6,0.1,1.3,0.1,2
	c0,55.2,0,110.3,0,165.5c0,0.1,0,0.2,0,0.3c0,3.6-1.4,5-5.1,5c-6.5,0-12.9,0-19.4,0c-11.2,0-22.5,0-33.7,0c-29.3,0-58.6,0-87.9,0
	c-8.3,0-16.6,0-24.8,0c-4,0-5.4-1.4-5.4-5.4c0-44.5,0-88.9,0-133.4c0-10.7,0-21.4,0-32.2c0-3.9,1.4-5.3,5.3-5.3
	C92.2,161.3,119.9,161.3,147.6,161.3z M147.4,329.9L147.4,329.9c26.1,0,52.3,0,78.4,0c2.1,0,2.1,0,2.1-2.1c0-52.3,0-104.5,0-156.8
	c0-2,0-2-2.1-2c-39.4,0-78.8,0-118.2,0c-12.8,0-25.6,0-38.4,0c-2.6,0-2.3-0.2-2.3,2.3c0,6,0,12.1,0,18.1c0,46.2,0,92.4,0,138.5
	c0,1.9,0,1.9,2,1.9C95.1,329.9,121.3,329.9,147.4,329.9z"/>
<path class="st0" d="M123.3,242.1L123.3,242.1c1.1,0,2.3,0,3.4,0c1.5,0,2.3-0.7,2.1-2.1c-0.2-1.6-0.6-3.2-1.3-4.6
	c-1.5-3-4.2-4.9-7.4-6.1c-7.2-2.7-14.4-2.7-21.5,0.3c-4.7,2-7.9,5.4-9.3,10.3c-0.7,2.5-1.1,5.2-1,7.8c0.1,8.3,4.6,14.6,12,17.1
	c5.2,1.8,10.5,1.9,15.9,0.9c4.3-0.9,8.1-2.7,10.9-6.2c1.4-1.7,2.2-3.7,2.4-5.9c0.1-1.7-0.6-2.5-2.3-2.5s-3.5,0.1-5.2,0
	c-2.2-0.2-3.7,0.7-4.8,2.6c-1.7,3-4.6,4.1-7.9,3.9c-3.5-0.2-6.3-1.6-7.7-5c-1.5-3.7-1.6-7.6,0-11.3c2.5-5.7,11.1-7,14.6-2
	c1.7,2.4,3.6,3.4,6.4,3C122.8,242.1,123.1,242.1,123.3,242.1z M191.1,228.3L191.1,228.3c-5.5,0-11,0-16.5,0c-1.8,0-2.3,0.6-2.4,2.3
	c0,1.5,0,3,0,4.4c0,1.6,0.7,2.2,2.3,2.3c2.7,0,5.5,0,8.2,0c2.5,0,2.5,0,2.5,2.5c0,7.7,0,15.4,0,23.1c0,2,0.5,2.4,2.5,2.5
	c2.1,0,4.1,0,6.2,0c2.5,0,2.9-0.4,2.9-2.9c0-7.8,0-15.7,0-23.5c0-1.3,0.4-1.7,1.6-1.6c2.9,0.1,5.8,0,8.8,0c1.9,0,2.5-0.6,2.6-2.6
	c0-1.3,0-2.7,0-4c0-1.8-0.7-2.4-2.5-2.4C201.9,228.3,196.5,228.3,191.1,228.3z M151.1,248.9c0-12.5,0-25,0-37.5
	c0-0.8,0.5-2.2-0.9-2.2s-0.9,1.3-0.9,2.1c0,25.1,0,50.2,0,75.2c0,0.8-0.4,2.2,0.9,2.1c1.3,0,0.9-1.4,0.9-2.2
	C151.2,274,151.1,261.5,151.1,248.9z"/>
<path class="st0" d="M123.3,242.1c-0.2,0-0.5,0-0.7,0c-2.8,0.4-4.6-0.6-6.4-3c-3.6-5-12.1-3.7-14.6,2c-1.6,3.7-1.6,7.6,0,11.3
	c1.4,3.4,4.2,4.8,7.7,5c3.3,0.2,6.2-0.9,7.9-3.9c1.1-1.9,2.5-2.8,4.8-2.6c1.7,0.1,3.4,0,5.2,0c1.7,0,2.4,0.8,2.3,2.5
	c-0.2,2.2-1,4.2-2.4,5.9c-2.8,3.5-6.6,5.3-10.9,6.2c-5.3,1.1-10.7,0.9-15.9-0.9c-7.4-2.5-11.9-8.8-12-17.1c0-2.6,0.4-5.3,1-7.8
	c1.4-4.9,4.6-8.4,9.3-10.3c7.1-3,14.3-3,21.5-0.3c3.1,1.2,5.8,3.1,7.4,6.1c0.7,1.4,1.1,3,1.3,4.6c0.2,1.4-0.6,2.1-2.1,2.1
	C125.6,242.2,124.5,242.1,123.3,242.1L123.3,242.1z"/>
<path class="st0" d="M191.1,228.3c5.4,0,10.7,0,16.1,0c1.8,0,2.4,0.6,2.5,2.4c0,1.3,0,2.7,0,4c0,2-0.6,2.6-2.6,2.6
	c-2.9,0-5.8,0.1-8.8,0c-1.3,0-1.6,0.4-1.6,1.6c0,7.8,0,15.7,0,23.5c0,2.5-0.4,2.9-2.9,2.9c-2.1,0-4.1,0-6.2,0c-2,0-2.5-0.5-2.5-2.5
	c0-7.7,0-15.4,0-23.1c0-2.5,0-2.5-2.5-2.5c-2.7,0-5.5,0-8.2,0c-1.6,0-2.3-0.6-2.3-2.3c0-1.5,0-3,0-4.4c0-1.7,0.6-2.3,2.4-2.3
	C180.1,228.3,185.6,228.3,191.1,228.3L191.1,228.3z"/>
<path class="st0" d="M151.1,248.9c0,12.5,0,25.1,0,37.6c0,0.8,0.4,2.2-0.9,2.2c-1.3,0-0.9-1.3-0.9-2.1c0-25.1,0-50.2,0-75.2
	c0-0.8-0.5-2.2,0.9-2.1c1.3,0,0.8,1.4,0.9,2.2C151.2,224,151.1,236.5,151.1,248.9z"/>
<g>
	<g>
		<path class="st0" d="M259.6,222.3c0,3.2,1,4.9,4.4,4.9h12.1v5.2c-3.2,0.7-6.3,1.1-9.3,1.1c-8.3,0-13.9-1.6-13.9-10.9v-6.4
			c0-4.5,0.9-8,5.4-9.8c2.1-0.8,4.9-1.2,8.5-1.2c3.1,0,6.1,0.4,9.3,1.1v5.2H264c-3.5,0-4.4,1.6-4.4,4.9V222.3z"/>
		<path class="st0" d="M308.8,222.6c0,9.4-6.1,10.9-14.3,10.9c-8.2,0-14.3-1.5-14.3-10.9v-6.5c0-9.4,6.1-10.9,14.3-10.9
			c8.2,0,14.3,1.5,14.3,10.9V222.6z M296.4,227.2c4.1,0,5.8-0.5,5.8-4.9v-6c0-1.5-0.1-3.4-1.5-4.3c-0.6-0.3-1.2-0.5-1.7-0.5
			c-0.6,0-1.4-0.1-2.5-0.1h-3.7c-1.1,0-2,0-2.5,0.1c-0.6,0-1.2,0.2-1.7,0.5c-1.4,0.8-1.5,2.8-1.5,4.3v6c0,2,0.3,3.3,1.1,3.9
			c0.7,0.7,1.8,1,3.4,1H296.4z"/>
		<path class="st0" d="M342.6,222.6c0,9.4-6.1,10.9-14.3,10.9c-8.2,0-14.3-1.5-14.3-10.9v-6.5c0-9.4,6.1-10.9,14.3-10.9
			c8.2,0,14.3,1.5,14.3,10.9V222.6z M330.2,227.2c4.1,0,5.8-0.5,5.8-4.9v-6c0-1.5-0.1-3.4-1.5-4.3c-0.6-0.3-1.2-0.5-1.7-0.5
			c-0.6,0-1.4-0.1-2.5-0.1h-3.7c-1.1,0-2,0-2.5,0.1c-0.6,0-1.2,0.2-1.7,0.5c-1.4,0.8-1.5,2.8-1.5,4.3v6c0,2,0.3,3.3,1.1,3.9
			c0.7,0.7,1.8,1,3.4,1H330.2z"/>
		<path class="st0" d="M355.2,233.2h-6.6v-27c3.5-0.7,7.1-1.1,10.6-1.1c7.6,0,13.9,1.6,13.9,10.1v0.6c0,8.3-5.1,10.1-12.5,10.1
			c-1.4,0-3.2-0.2-5.4-0.6V233.2z M355.2,211.4v8.4h6.4c3.2,0,4.8-1.3,4.8-4v-0.2c0-2.7-1.6-4.1-4.8-4.1L355.2,211.4L355.2,211.4z"
			/>
		<path class="st0" d="M377.6,233.2v-27.8h22.6v6h-15.9v5h14.2v5.5h-14.2v5.3h16.4v6H377.6z"/>
		<path class="st0" d="M412,233.2h-6.6v-27c3.5-0.7,7-1.1,10.6-1.1c6.9,0,13.9,1.2,13.9,9.6v0.6c0,4.4-1.5,7.3-5.9,8.6v0.2l7.5,9
			H423l-6.6-8.3c-1.1,0-2.6-0.1-4.4-0.4V233.2z M412,211.4v7.3h6.6c2.6,0,4.7-0.6,4.7-3.6v-0.2c0-2.9-2.1-3.6-4.7-3.6H412V211.4z"/>
		<path class="st0" d="M441.1,213.5c0,0.7,0.6,1.3,1.8,1.7c1.2,0.4,2.6,0.7,4.4,0.9c5,0.7,11.3,1.8,11.3,8.1v0.8
			c0,7.7-7.5,8.5-13.6,8.5c-3.9,0-7.4-0.3-10.7-1.1v-5.2h12.8c3.2,0,4.8-0.8,4.8-2.4c0-0.7-0.6-1.3-1.8-1.7c-1.2-0.4-2.7-0.7-4.4-1
			c-1.7-0.2-3.5-0.5-5.1-1c-3.3-0.7-6.2-3-6.2-6.6v-1c0-7.7,7.1-8.5,13.2-8.5c3.2,0,6.4,0.3,9.7,1.1v5.2h-11.6
			C442.7,211.4,441.1,212.1,441.1,213.5L441.1,213.5z"/>
		<path class="st0" d="M250.5,259.4v-6h25.3v6h-9.3v21.8h-6.6v-21.8H250.5z"/>
		<path class="st0" d="M285.3,253.4h7.3l12.4,27.8h-7.2l-2.3-5.6h-13.2l-2.3,5.6h-7.2L285.3,253.4z M288.9,259.9l-4.5,10.8h9.1
			l-4.5-10.8H288.9z"/>
		<path class="st0" d="M313.5,281.2h-8.2l10.4-14.2l-9.9-13.6h8.1l5.8,9h0.2l5.8-9h8.1l-9.9,13.6l10.4,14.2H326l-6.1-9.5h-0.2
			L313.5,281.2z"/>
		<path class="st0" d="M346.9,253.4h7.3l12.4,27.8h-7.2l-2.3-5.6h-13.2l-2.3,5.6h-7.2L346.9,253.4z M350.4,259.9l-4.5,10.8h9.1
			l-4.5-10.8H350.4z"/>
		<path class="st0" d="M363.8,259.4v-6H389v6h-9.3v21.8h-6.6v-21.8H363.8z"/>
		<path class="st0" d="M399.1,281.2h-6.6v-27.8h6.6V281.2z"/>
		<path class="st0" d="M433.6,270.6c0,9.4-6.1,10.9-14.3,10.9c-8.2,0-14.3-1.5-14.3-10.9v-6.5c0-9.4,6.1-10.9,14.3-10.9
			c8.2,0,14.3,1.5,14.3,10.9V270.6z M421.2,275.2c4.1,0,5.8-0.5,5.8-4.9v-6c0-1.5-0.1-3.4-1.5-4.3c-0.6-0.3-1.2-0.5-1.7-0.5
			c-0.6,0-1.4-0.1-2.5-0.1h-3.7c-1.1,0-2,0-2.5,0.1c-0.6,0-1.2,0.2-1.7,0.5c-1.4,0.8-1.5,2.8-1.5,4.3v6c0,2,0.3,3.3,1.1,3.9
			c0.7,0.7,1.8,1,3.4,1H421.2z"/>
		<path class="st0" d="M446.2,281.2h-6.7v-27.8h7.9l12.8,18.3h0.2v-18.3h6.7v27.8h-7.9l-12.8-18.3h-0.2V281.2z"/>
	</g>
</g>
<g>
	<path class="st1" d="M259.7,298.8c0.4,0.1,0.9,0.2,1.5,0.3c1.8,0.3,4,0.6,4,2.9v0.3c0,2.7-2.7,3-4.8,3c-1.4,0-2.6-0.1-3.8-0.4v-1.8
		h4.5c1.1,0,1.7-0.3,1.7-0.8c0-0.3-0.2-0.5-0.6-0.6c-0.4-0.1-1-0.3-1.5-0.3c-0.6-0.1-1.2-0.2-1.8-0.3c-1.2-0.3-2.2-1.1-2.2-2.3v-0.4
		c0-2.7,2.5-3,4.7-3c1.1,0,2.3,0.1,3.5,0.4v1.8h-4.1c-1.1,0-1.7,0.3-1.7,0.7C259.1,298.5,259.3,298.7,259.7,298.8z"/>
	<path class="st1" d="M269.4,305.2H267v-9.9h2.3V305.2z"/>
	<path class="st1" d="M274.1,305.2h-2.3v-9.9h3.2l3,7.1h0.1l3-7.1h3.2v9.9h-2.3v-6.6h-0.1l-2.8,6.6h-2.1l-2.8-6.6h-0.1V305.2z"/>
	<path class="st1" d="M288.9,305.2h-2.3v-9.6c1.2-0.3,2.5-0.4,3.8-0.4c2.7,0,4.9,0.6,4.9,3.6v0.2c0,2.9-1.8,3.6-4.4,3.6
		c-0.5,0-1.1-0.1-1.9-0.2V305.2z M288.9,297.5v3h2.3c1.1,0,1.7-0.5,1.7-1.4v-0.1c0-1-0.6-1.4-1.7-1.4H288.9z"/>
	<path class="st1" d="M296.9,305.2v-9.9h2.3v7.7h5v2.1H296.9z"/>
	<path class="st1" d="M305.5,305.2v-9.9h8v2.1h-5.6v1.8h5v1.9h-5v1.9h5.8v2.1H305.5z"/>
	<path class="st1" d="M323.6,295.4h2.6l4.4,9.9h-2.5l-0.8-2h-4.7l-0.8,2h-2.5L323.6,295.4z M324.9,297.7l-1.6,3.8h3.2L324.9,297.7
		L324.9,297.7z"/>
	<path class="st1" d="M333.9,301.4c0,1.1,0.4,1.7,1.6,1.7h4.3v1.8c-1.1,0.3-2.2,0.4-3.3,0.4c-2.9,0-4.9-0.6-4.9-3.9v-2.3
		c0-1.6,0.3-2.8,1.9-3.5c0.7-0.3,1.7-0.4,3-0.4c1.1,0,2.2,0.1,3.3,0.4v1.8h-4.3c-1.2,0-1.6,0.5-1.6,1.7V301.4z"/>
	<path class="st1" d="M343.6,301.4c0,1.1,0.4,1.7,1.6,1.7h4.3v1.8c-1.1,0.3-2.2,0.4-3.3,0.4c-2.9,0-4.9-0.6-4.9-3.9v-2.3
		c0-1.6,0.3-2.8,1.9-3.5c0.7-0.3,1.7-0.4,3-0.4c1.1,0,2.2,0.1,3.3,0.4v1.8h-4.3c-1.2,0-1.6,0.5-1.6,1.7V301.4z"/>
	<path class="st1" d="M358,295.4h2.4v6.1c0,3.5-1.8,3.9-4.7,3.9c-1.7,0-4-0.1-4.5-2.1c-0.1-0.5-0.2-1-0.2-1.7v-6.1h2.4v6
		c0,1.2,0.3,1.7,1.6,1.7h1.5c1.3,0,1.6-0.5,1.6-1.7V295.4z"/>
	<path class="st1" d="M365,305.2h-2.3v-9.6c1.2-0.3,2.5-0.4,3.8-0.4c2.5,0,4.9,0.4,4.9,3.4v0.2c0,1.6-0.5,2.6-2.1,3.1v0.1l2.7,3.2
		h-3l-2.3-2.9c-0.4,0-0.9-0.1-1.5-0.2V305.2z M365,297.5v2.6h2.3c0.9,0,1.6-0.2,1.6-1.3v-0.1c0-1-0.7-1.3-1.6-1.3H365z"/>
	<path class="st1" d="M376.7,295.4h2.6l4.4,9.9h-2.5l-0.8-2h-4.7l-0.8,2h-2.5L376.7,295.4z M378,297.7l-1.6,3.8h3.2L378,297.7
		L378,297.7z"/>
	<path class="st1" d="M382.7,297.5v-2.1h8.9v2.1h-3.3v7.7H386v-7.7H382.7z"/>
	<path class="st1" d="M392.9,305.2v-9.9h8v2.1h-5.6v1.8h5v1.9h-5v1.9h5.8v2.1H392.9z"/>
	<path class="st1" d="M410.3,298.8c0.4,0.1,0.9,0.2,1.5,0.3c1.8,0.3,4,0.6,4,2.9v0.3c0,2.7-2.7,3-4.8,3c-1.4,0-2.6-0.1-3.8-0.4v-1.8
		h4.5c1.1,0,1.7-0.3,1.7-0.8c0-0.3-0.2-0.5-0.6-0.6c-0.4-0.1-1-0.3-1.5-0.3c-0.6-0.1-1.2-0.2-1.8-0.3c-1.2-0.3-2.2-1.1-2.2-2.3v-0.4
		c0-2.7,2.5-3,4.7-3c1.1,0,2.3,0.1,3.5,0.4v1.8h-4.1c-1.1,0-1.7,0.3-1.7,0.7C409.6,298.5,409.8,298.7,410.3,298.8z"/>
	<path class="st1" d="M417.6,305.2v-9.9h8v2.1h-5.6v1.8h5v1.9h-5v1.9h5.8v2.1H417.6z"/>
	<path class="st1" d="M429.5,301.4c0,1.1,0.4,1.7,1.6,1.7h4.3v1.8c-1.1,0.3-2.2,0.4-3.3,0.4c-2.9,0-4.9-0.6-4.9-3.9v-2.3
		c0-1.6,0.3-2.8,1.9-3.5c0.7-0.3,1.7-0.4,3-0.4c1.1,0,2.2,0.1,3.3,0.4v1.8h-4.3c-1.2,0-1.6,0.5-1.6,1.7V301.4z"/>
	<path class="st1" d="M444,295.4h2.4v6.1c0,3.5-1.8,3.9-4.7,3.9c-1.7,0-4-0.1-4.5-2.1c-0.1-0.5-0.2-1-0.2-1.7v-6.1h2.4v6
		c0,1.2,0.3,1.7,1.6,1.7h1.5c1.3,0,1.6-0.5,1.6-1.7V295.4z"/>
	<path class="st1" d="M450.9,305.2h-2.3v-9.6c1.2-0.3,2.5-0.4,3.8-0.4c2.5,0,4.9,0.4,4.9,3.4v0.2c0,1.6-0.5,2.6-2.1,3.1v0.1l2.7,3.2
		h-3l-2.3-2.9c-0.4,0-0.9-0.1-1.5-0.2V305.2z M450.9,297.5v2.6h2.3c0.9,0,1.6-0.2,1.6-1.3v-0.1c0-1-0.7-1.3-1.6-1.3H450.9z"/>
	<path class="st1" d="M459.4,305.2v-9.9h8v2.1h-5.6v1.8h5v1.9h-5v1.9h5.8v2.1H459.4z"/>
</g>
</svg>
