<svg xmlns="http://www.w3.org/2000/svg" viewBox="0 0 100 60" width="100" height="60">
  <!-- Secure Payment Background -->
  <rect width="100" height="60" fill="#059669" rx="5"/>
  
  <!-- Lock Icon -->
  <path d="M45 20h10v-3c0-2.8-2.2-5-5-5s-5 2.2-5 5v3zm-5 2v-5c0-5.5 4.5-10 10-10s10 4.5 10 10v5h2c1.1 0 2 .9 2 2v16c0 1.1-.9 2-2 2H38c-1.1 0-2-.9-2-2V24c0-1.1.9-2 2-2h2z" fill="white"/>
  
  <!-- Text -->
  <text x="50" y="50" font-family="Arial, sans-serif" font-size="6" text-anchor="middle" fill="white">SECURE PAYMENT</text>
</svg>